# xmcd
#
# Track frame offsets: 
#        150
#        12014
#        25391
#        36103
#        49843
#        64398
#        77688
#        91950
#        105130
#        119240
#        132784
#        147483
#        160410
#        171540
#        184146
#        196987
#        210085
#        222072
#        236123
#        247808
#
# Disc length: 3461 seconds
#
# Revision: 0
# Processed by: cddbd v1.5PL3 Copyright (c) Steve Scherf et al.
# Submitted via: ExactAudioCopy v0.95a3
#
DISCID=170d8314
DTITLE=Ernest Tubb - Famous Country Music Makers
DYEAR=1900
DGENRE=Country
TTITLE0=Walking The Floor Over You
TTITLE1=Mean Mama Blues
TTITLE2=Try Me One More Time
TTITLE3=Tomorrow Never Comes
TTITLE4=It's Been So Long, Darling
TTITLE5=Drivin' Nails In My Coffin
TTITLE6=Rainbow At Midnight
TTITLE7=So Round, So Firm, So Fully Packed
TTITLE8=Don't Look Now (but Your Broken Heart Is
TTITLE9=Let's Say Goodbye Like We Said Hello
TTITLE10=Forever Is Ending Today
TTITLE11=Have You Ever Been Lonely (Have You Ever Been Blue-)
TTITLE12='Til The End Of The World
TTITLE13=Don't Rob Another Man's Castle
TTITLE14=I'm Bitin' My Fingernails And Thinking Of You
TTITLE15=Slippin' Around
TTITLE16=Tennessee Border No. 2
TTITLE17=Letters Have No Arms
TTITLE18=Throw Your Love My Way
TTITLE19=I Love You Because
EXTD=
EXTT0=
EXTT1=
EXTT2=
EXTT3=
EXTT4=
EXTT5=
EXTT6=
EXTT7=
EXTT8=
EXTT9=
EXTT10=
EXTT11=
EXTT12=
EXTT13=
EXTT14=
EXTT15=
EXTT16=
EXTT17=
EXTT18=
EXTT19=
PLAYORDER=
